<svg width="45" height="44" viewBox="0 0 45 44" fill="none" xmlns="http://www.w3.org/2000/svg">
<g opacity="0.8" clip-path="url(#clip0_17_159)">
<path d="M42.9844 0.125H2.01562C1.03037 0.125 0.234375 0.907031 0.234375 1.875V42.125C0.234375 43.093 1.03037 43.875 2.01562 43.875H42.9844C43.9696 43.875 44.7656 43.093 44.7656 42.125V1.875C44.7656 0.907031 43.9696 0.125 42.9844 0.125ZM41.2031 40.375H30.9554V26.9328H36.7444L37.6128 20.332H30.9554V16.1156C30.9554 14.2016 31.4953 12.9 34.2841 12.9H37.841V6.99375C37.2231 6.91172 35.1135 6.73125 32.6531 6.73125C27.5209 6.73125 24.0085 9.81016 24.0085 15.4594V20.3266H18.2083V26.9273H24.0141V40.375H3.79688V3.625H41.2031V40.375Z" fill="white"/>
</g>
<defs>
<clipPath id="clip0_17_159">
<rect width="45" height="44" fill="white"/>
</clipPath>
</defs>
</svg>
