<svg width="44" height="44" viewBox="0 0 44 44" fill="none" xmlns="http://www.w3.org/2000/svg">
<g opacity="0.8" clip-path="url(#clip0_17_161)">
<path d="M22 10.7837C15.793 10.7837 10.7836 15.7931 10.7836 22.0001C10.7836 28.2071 15.793 33.2165 22 33.2165C28.207 33.2165 33.2164 28.2071 33.2164 22.0001C33.2164 15.7931 28.207 10.7837 22 10.7837ZM22 29.29C17.986 29.29 14.7102 26.0142 14.7102 22.0001C14.7102 17.986 17.986 14.7103 22 14.7103C26.0141 14.7103 29.2899 17.986 29.2899 22.0001C29.2899 26.0142 26.0141 29.29 22 29.29ZM33.6758 7.71027C32.2266 7.71027 31.0563 8.88058 31.0563 10.3298C31.0563 11.779 32.2266 12.9493 33.6758 12.9493C35.125 12.9493 36.2953 11.7845 36.2953 10.3298C36.2958 9.98568 36.2283 9.64485 36.0968 9.32684C35.9653 9.00883 35.7724 8.71988 35.529 8.47655C35.2857 8.23322 34.9968 8.04028 34.6788 7.90879C34.3607 7.7773 34.0199 7.70984 33.6758 7.71027ZM43.8641 22.0001C43.8641 18.9814 43.8914 15.99 43.7219 12.9767C43.5524 9.47668 42.7539 6.37043 40.1945 3.81105C37.6297 1.24621 34.5289 0.453238 31.0289 0.283707C28.0102 0.114175 25.0188 0.141519 22.0055 0.141519C18.9867 0.141519 15.9953 0.114175 12.982 0.283707C9.48205 0.453238 6.3758 1.25168 3.81642 3.81105C1.25158 6.37589 0.458609 9.47668 0.289078 12.9767C0.119546 15.9954 0.14689 18.9868 0.14689 22.0001C0.14689 25.0134 0.119546 28.0103 0.289078 31.0236C0.458609 34.5236 1.25705 37.6298 3.81642 40.1892C6.38127 42.754 9.48205 43.547 12.982 43.7165C16.0008 43.886 18.9922 43.8587 22.0055 43.8587C25.0242 43.8587 28.0156 43.886 31.0289 43.7165C34.5289 43.547 37.6352 42.7486 40.1945 40.1892C42.7594 37.6243 43.5524 34.5236 43.7219 31.0236C43.8969 28.0103 43.8641 25.0189 43.8641 22.0001ZM39.0516 34.8954C38.6524 35.8907 38.1711 36.6345 37.4 37.4001C36.6289 38.1712 35.8906 38.6525 34.8953 39.0517C32.0188 40.1946 25.1883 39.9376 22 39.9376C18.8117 39.9376 11.9758 40.1946 9.09923 39.0571C8.10392 38.6579 7.36017 38.1767 6.59455 37.4056C5.82345 36.6345 5.3422 35.8962 4.94298 34.9009C3.80548 32.0189 4.06252 25.1884 4.06252 22.0001C4.06252 18.8118 3.80548 11.9759 4.94298 9.09933C5.3422 8.10402 5.82345 7.36027 6.59455 6.59464C7.36564 5.82902 8.10392 5.3423 9.09923 4.94308C11.9758 3.80558 18.8117 4.06261 22 4.06261C25.1883 4.06261 32.0242 3.80558 34.9008 4.94308C35.8961 5.3423 36.6399 5.82355 37.4055 6.59464C38.1766 7.36574 38.6578 8.10402 39.057 9.09933C40.1945 11.9759 39.9375 18.8118 39.9375 22.0001C39.9375 25.1884 40.1945 32.0189 39.0516 34.8954Z" fill="white"/>
</g>
<defs>
<clipPath id="clip0_17_161">
<rect width="44" height="44" fill="white"/>
</clipPath>
</defs>
</svg>
