<svg width="44" height="44" viewBox="0 0 44 44" fill="none" xmlns="http://www.w3.org/2000/svg">
<g opacity="0.8" clip-path="url(#clip0_17_165)">
<path d="M40.3586 0.125H3.64141C1.7 0.125 0.125 1.7 0.125 3.64141V40.3586C0.125 42.3 1.7 43.875 3.64141 43.875H40.3586C42.3 43.875 43.875 42.3 43.875 40.3586V3.64141C43.875 1.7 42.3 0.125 40.3586 0.125ZM40.3586 40.375C15.8695 40.3695 3.625 40.3641 3.625 40.3586C3.63047 15.8695 3.63594 3.625 3.64141 3.625C28.1305 3.63047 40.375 3.63594 40.375 3.64141C40.3695 28.1305 40.3641 40.375 40.3586 40.375ZM6.61094 16.5258H13.1023V37.4055H6.61094V16.5258ZM9.85938 13.6711C11.932 13.6711 13.6219 11.9867 13.6219 9.90859C13.6219 9.41449 13.5246 8.92523 13.3355 8.46875C13.1464 8.01226 12.8692 7.59749 12.5199 7.2481C12.1705 6.89872 11.7557 6.62158 11.2992 6.4325C10.8427 6.24341 10.3535 6.14609 9.85938 6.14609C9.36528 6.14609 8.87602 6.24341 8.41953 6.4325C7.96304 6.62158 7.54827 6.89872 7.19889 7.2481C6.84951 7.59749 6.57236 8.01226 6.38328 8.46875C6.19419 8.92523 6.09687 9.41449 6.09687 9.90859C6.09141 11.9867 7.77578 13.6711 9.85938 13.6711ZM23.657 27.075C23.657 24.3516 24.1766 21.7156 27.5508 21.7156C30.8758 21.7156 30.925 24.8273 30.925 27.25V37.4055H37.4109V25.9539C37.4109 20.332 36.1969 16.0062 29.6289 16.0062C26.4734 16.0062 24.357 17.7398 23.4875 19.3805H23.4V16.5258H17.1711V37.4055H23.657V27.075Z" fill="white"/>
</g>
<defs>
<clipPath id="clip0_17_165">
<rect width="44" height="44" fill="white"/>
</clipPath>
</defs>
</svg>
