<svg width="45" height="44" viewBox="0 0 45 44" fill="none" xmlns="http://www.w3.org/2000/svg">
<g opacity="0.8" clip-path="url(#clip0_17_163)">
<path d="M42.9844 0.125H2.01562C1.03037 0.125 0.234375 0.907031 0.234375 1.875V42.125C0.234375 43.093 1.03037 43.875 2.01562 43.875H42.9844C43.9696 43.875 44.7656 43.093 44.7656 42.125V1.875C44.7656 0.907031 43.9696 0.125 42.9844 0.125ZM34.4845 15.968C34.5012 16.225 34.5012 16.493 34.5012 16.7555C34.5012 24.7836 28.2779 34.0312 16.9058 34.0312C13.3989 34.0312 10.1481 33.0305 7.40947 31.3078C7.91045 31.3625 8.38916 31.3844 8.90127 31.3844C11.7958 31.3844 14.4565 30.4219 16.5773 28.7922C13.8609 28.7375 11.5787 26.9875 10.7994 24.5813C11.7513 24.718 12.6085 24.718 13.5882 24.4719C12.1895 24.1927 10.9323 23.4464 10.0302 22.3598C9.12814 21.2731 8.63679 19.9132 8.63965 18.5109V18.4344C9.45791 18.8883 10.4209 19.1672 11.4284 19.2055C10.5814 18.6509 9.88685 17.8996 9.40621 17.0181C8.92556 16.1367 8.67373 15.1523 8.67305 14.1523C8.67305 13.0203 8.97363 11.9867 9.51357 11.0898C11.0661 12.9675 13.0033 14.5031 15.1995 15.597C17.3956 16.6909 19.8015 17.3185 22.2606 17.4391C21.3867 13.3102 24.5262 9.96875 28.3002 9.96875C30.0814 9.96875 31.6846 10.7016 32.8145 11.8828C34.2117 11.6258 35.5477 11.1117 36.7389 10.4227C36.2769 11.8281 35.3083 13.0148 34.0225 13.7641C35.2693 13.6328 36.4717 13.2938 37.585 12.818C36.7444 14.032 35.6924 15.1094 34.4845 15.968Z" fill="white"/>
</g>
<defs>
<clipPath id="clip0_17_163">
<rect width="45" height="44" fill="white"/>
</clipPath>
</defs>
</svg>
